P3
48  48
255
90 93 74 82 93 72 77 88 64 89 90 79 86 90 76 79 95 65 81 86 70 87 93 76 87 88 73 79 84 67 93 88 81 86 92 79 89 97 78 91 94 79 89 93 73 88 90 80 93 92 81 85 89 76 87 89 80 92 91 77 91 87 78 96 90 81 87 85 81 93 90 84 97 91 80 90 80 83 96 90 81 99 91 82 97 83 81 98 86 81 95 81 83 97 87 84 102 84 94 100 91 83 101 84 89 103 79 91 102 80 88 104 76 86 110 86 93 100 75 89 105 83 90 99 83 89 100 78 85 101 83 80 107 87 96 106 82 86 106 77 92 103 78 84 74 86 66 89 97 78 76 83 67 84 90 73 92 99 74 79 86 71 84 97 73 89 87 79 82 82 78 84 97 72 85 87 77 92 96 77 84 87 76 86 91 78 92 92 86 87 86 74 93 81 76 87 81 77 96 94 83 88 86 78 183 179 182 174 179 171 170 165 167 196 196 194 194 192 191 201 198 199 177 171 171 172 166 165 99 91 87 102 90 87 100 89 82 98 85 80 109 91 91 103 82 90 108 86 83 105 83 88 94 79 82 109 95 94 97 78 83 101 83 86 103 84 90 101 82 86 101 79 87 107 81 92 105 78 89 105 86 93 105 76 87 96 76 80 80 88 72 80 85 71 78 85 69 78 83 68 81 95 72 84 93 75 88 95 75 88 96 75 86 97 75 86 95 75 88 97 68 94 98 82 82 84 69 88 88 75 93 89 80 89 86 76 93 98 82 85 87 73 87 84 79 93 87 79 209 205 206 255 255 255 255 255 255 255 255 255 255 255 255 255 255 255 255 255 255 217 215 215 96 85 80 104 95 82 101 88 83 96 85 77 95 78 81 97 83 80 103 87 89 108 93 89 105 83 88 100 83 86 107 81 88 109 87 92 103 79 85 101 83 89 106 85 95 100 74 89 102 86 88 102 84 88 105 80 94 97 76 85 85 87 76 83 90 70 75 91 66 80 91 69 81 88 70 82 88 77 89 95 74 84 93 73 80 85 69 82 96 74 85 95 72 79 93 70 88 97 74 88 84 79 89 90 80 82 88 69 89 85 77 90 93 79 84 76 67 100 98 84 185 184 183 255 255 255 255 255 255 255 255 255 255 255 255 255 255 255 255 255 255 202 201 197 106 91 90 97 85 86 95 85 77 108 85 88 101 84 82 103 84 85 105 81 85 94 77 87 100 81 84 110 85 91 101 82 87 100 80 86 111 81 95 97 78 81 104 78 85 106 81 89 105 81 91 97 72 86 96 74 80 101 79 83 78 85 69 77 89 68 86 95 74 92 95 75 77 93 72 78 89 70 81 90 68 80 90 65 84 90 70 83 96 75 82 95 72 77 87 74 87 90 80 87 86 76 84 87 71 88 86 77 84 84 72 94 92 77 86 85 77 98 88 89 167 167 160 255 255 255 255 255 255 255 255 255 255 255 255 255 255 255 255 255 255 170 157 163 96 85 84 106 91 89 98 83 81 102 88 89 98 86 85 104 89 87 98 81 87 102 85 87 103 89 87 111 89 95 101 87 84 106 81 95 106 82 92 113 89 95 101 73 88 98 77 82 97 79 81 109 85 86 90 76 77 95 82 79 79 80 65 86 92 77 81 90 73 80 90 71 78 84 66 87 88 78 83 91 66 92 105 78 84 93 72 79 91 73 85 90 76 83 90 73 77 86 69 84 91 74 91 88 80 88 84 74 86 92 76 85 86 76 88 92 81 88 89 73 184 184 174 255 255 255 255 255 255 255 255 255 255 255 255 255 255 255 255 255 255 162 151 146 101 90 84 100 89 81 97 90 81 94 79 84 111 97 90 99 77 86 111 85 93 110 87 91 106 87 87 103 84 86 100 82 78 102 80 82 102 86 84 102 82 93 100 82 83 107 84 98 103 78 86 87 69 71 92 73 81 85 70 74 60 78 47 72 78 61 78 84 64 75 90 66 82 85 71 77 88 67 76 90 63 81 83 68 83 91 72 78 88 73 78 84 65 79 88 71 84 90 77 84 91 72 86 88 74 87 84 72 94 101 82 92 93 79 82 84 72 99 95 84 113 111 98 255 255 255 255 255 255 255 255 255 255 255 255 255 255 255 255 255 255 125 107 106 100 89 88 97 85 82 102 85 88 96 83 81 111 93 86 99 83 87 107 92 88 107 88 85 101 80 86 106 88 83 113 85 90 100 81 89 109 86 90 101 79 89 101 80 81 98 74 80 98 75 77 90 74 79 88 70 73 89 61 77 65 90 50 71 89 56 69 82 52 75 84 61 80 91 70 67 80 63 85 92 73 76 83 66 86 95 77 84 91 72 83 96 72 98 101 88 87 92 68 83 93 68 84 93 68 91 97 78 95 102 82 92 89 80 94 94 78 95 92 73 106 108 92 255 255 255 255 255 255 255 255 255 255 255 255 255 255 255 255 255 255 103 95 82 104 95 89 101 95 80 100 94 78 112 99 91 105 88 84 109 87 84 102 90 80 109 88 87 109 82 89 114 92 94 103 81 80 112 89 83 99 86 83 96 77 82 96 77 82 96 77 75 88 71 76 85 62 72 94 57 88 99 57 85 69 105 48 69 102 56 68 90 54 69 84 52 71 74 53 80 81 66 82 84 71 80 94 64 75 87 68 80 87 70 79 93 68 81 85 71 89 95 69 86 90 76 88 91 80 93 99 80 91 99 74 83 90 76 87 87 75 94 90 81 93 90 80 166 170 156 154 150 144 201 201 195 169 167 161 169 162 162 201 200 193 104 94 86 107 96 82 109 102 78 105 83 77 102 86 82 111 92 94 102 87 82 103 88 84 103 84 86 103 87 83 107 90 84 110 87 93 110 79 91 102 75 83 97 74 83 92 77 80 84 68 71 80 54 71 103 65 84 110 68 94 117 64 100 74 117 62 72 110 57 67 103 53 64 93 49 63 90 51 67 83 53 81 84 68 73 79 68 86 93 68 77 91 67 83 97 71 87 93 74 85 88 76 83 84 72 83 85 69 77 87 63 91 100 76 87 91 74 92 87 76 86 89 76 93 91 75 90 87 73 88 87 74 96 91 77 91 83 82 97 87 80 103 104 79 103 90 72 99 89 77 102 92 74 108 97 83 101 91 78 107 94 85 104 87 84 109 88 87 99 88 80 101 80 81 110 90 89 98 81 78 102 82 77 97 75 78 92 80 76 83 63 68 94 61 82 109 63 99 108 54 100 130 70 109 130 62 116 68 126 52 73 124 52 63 115 48 65 110 54 71 101 51 65 93 53 76 90 57 80 81 61 81 80 70 82 88 71 79 86 71 77 85 66 76 83 66 86 91 74 78 83 69 92 93 82 85 82 76 92 92 75 89 92 74 90 95 73 96 94 74 88 85 70 96 95 78 99 96 83 91 91 76 95 90 81 103 99 82 107 102 82 105 98 82 101 91 79 110 97 80 98 90 78 109 88 85 107 96 83 101 93 74 104 88 82 107 85 82 110 88 91 100 78 79 94 82 77 86 70 69 85 59 75 104 61 85 115 61 107 121 63 107 129 66 114 140 63 128 144 65 132 64 127 51 73 137 53 75 129 53 68 124 53 73 111 53 65 102 45 63 96 47 68 89 53 68 77 54 71 79 59 85 88 72 85 95 67 81 84 67 80 86 68 77 88 69 82 91 67 90 95 77 92 86 73 85 85 74 89 86 69 94 92 77 100 97 77 93 87 73 97 92 79 104 103 77 100 95 76 104 96 86 108 97 76 111 101 80 103 92 79 113 98 81 109 92 80 106 96 83 105 96 76 113 89 81 102 86 83 101 85 80 94 76 76 93 81 73 82 63 69 94 65 79 101 54 88 116 62 105 131 58 119 134 61 123 148 66 131 151 60 143 159 68 148 74 142 56 73 144 55 70 135 54 72 142 49 63 119 48 71 121 53 72 114 54 61 89 44 60 85 45 50 57 44 52 55 46 64 66 58 69 75 60 71 70 60 76 83 62 79 83 71 87 81 74 90 93 72 89 90 70 87 91 70 95 94 78 97 95 76 96 98 74 97 98 76 98 96 77 106 104 78 103 95 78 103 97 73 105 96 78 103 99 65 112 100 73 109 93 77 103 91 75 88 80 68 91 83 66 91 79 64 78 72 54 83 81 57 82 70 56 92 58 82 114 59 96 124 67 105 131 64 111 135 60 126 156 67 140 157 60 150 150 60 135 171 63 160 74 153 60 74 156 53 79 158 59 72 138 59 63 132 51 72 134 56 68 128 48 75 115 57 65 106 48 57 71 45 53 56 46 51 57 45 50 54 42 54 59 46 50 51 44 58 66 47 72 76 57 70 66 56 74 72 58 82 83 62 90 93 74 92 87 74 98 95 78 105 100 73 90 91 67 100 97 70 92 88 60 104 97 77 99 91 68 91 87 61 84 81 61 92 79 66 90 84 57 98 83 56 102 89 56 95 89 50 100 91 54 90 83 45 104 79 69 110 60 98 129 67 114 147 72 129 152 65 136 153 61 140 161 64 148 173 70 153 171 67 160 184 70 170 73 160 56 77 162 61 73 155 64 69 145 53 75 151 53 70 146 52 71 136 49 68 128 51 76 120 58 52 71 44 50 54 44 51 58 45 58 60 50 52 55 46 54 55 46 56 59 45 58 57 49 58 54 49 52 53 44 57 57 48 65 63 55 67 67 50 78 76 58 82 80 59 92 89 68 90 86 61 88 81 57 91 91 51 100 98 48 107 101 55 108 103 53 115 108 49 128 118 53 127 116 62 119 112 53 116 109 54 121 110 62 120 106 57 119 95 59 130 64 111 151 72 130 161 71 141 172 72 156 176 75 154 173 60 161 185 72 176 185 71 169 175 62 160 68 160 55 72 161 57 72 162 54 73 160 56 68 148 53 69 154 49 75 144 53 77 138 59 70 126 47 57 81 46 57 61 52 55 59 48 57 56 48 57 59 50 57 61 51 56 61 45 58 60 48 60 57 51 66 62 54 61 61 49 68 63 53 62 59 49 63 62 47 60 58 45 98 99 53 103 104 51 121 119 47 126 125 50 141 134 55 145 149 51 152 144 49 148 143 49 151 150 51 147 135 59 143 134 62 145 127 62 136 128 58 138 114 62 123 93 76 142 69 116 156 74 140 170 67 158 169 66 153 180 68 164 185 69 173 188 68 171 182 62 176 187 63 177 71 163 59 76 169 54 70 158 51 74 170 52 72 160 55 72 166 49 68 149 48 70 143 56 69 138 54 54 62 49 53 54 50 59 59 49 58 55 53 59 60 53 58 59 50 76 72 65 110 109 104 119 121 115 76 76 64 68 65 54 64 57 48 68 59 56 70 64 49 67 63 41 127 132 46 136 133 52 155 159 42 164 165 54 168 170 47 183 179 62 189 181 56 183 176 57 185 176 56 165 156 63 162 149 61 157 144 66 154 139 58 146 128 56 149 121 77 160 74 143 163 63 146 171 65 161 185 69 170 190 64 180 186 68 171 187 66 170 183 62 170 192 67 178 71 164 51 68 159 52 78 175 61 72 162 54 69 162 58 77 168 56 74 160 55 71 154 50 75 147 55 58 78 51 55 51 48 59 57 54 54 51 50 57 54 48 55 51 49 77 68 65 86 79 82 100 93 92 102 93 93 72 60 57 66 62 53 74 62 57 70 62 49 63 51 50 145 148 46 171 175 52 179 181 52 197 193 58 190 190 49 213 208 60 199 192 54 210 202 59 196 185 64 184 170 64 181 164 71 181 168 63 169 155 62 157 136 61 153 129 77 164 70 144 180 72 160 178 71 154 190 71 177 187 62 175 200 67 192 184 64 170 184 60 173 206 76 189 77 175 63 78 179 62 72 165 55 75 176 60 72 171 55 72 163 55 69 166 56 73 155 57 78 161 55 51 55 50 54 43 45 56 44 47 54 45 48 58 50 52 59 52 52 60 51 51 59 51 52 61 51 54 65 53 55 67 55 57 60 47 51 58 48 49 64 46 56 61 44 52 168 161 57 184 183 54 187 186 49 210 204 53 231 228 56 229 225 57 212 207 61 216 205 56 204 201 57 192 180 56 190 173 66 174 161 58 172 164 59 175 152 71 156 123 87 176 71 159 184 82 165 195 81 177 183 62 167 188 67 174 195 64 182 187 62 171 194 63 181 194 71 176 75 172 55 71 168 56 76 165 59 80 184 57 81 183 59 79 175 53 76 163 55 73 159 56 72 146 56 50 63 46 45 32 35 57 40 37 51 34 32 55 36 33 57 40 35 57 38 36 57 41 36 52 40 39 47 34 42 52 35 49 61 37 55 68 39 63 79 38 73 90 47 81 170 171 46 181 183 48 209 212 57 218 221 54 221 218 56 222 220 51 221 217 59 213 205 56 218 213 64 195 189 66 192 176 65 183 167 71 188 168 70 172 153 65 165 121 86 175 72 152 181 67 161 190 69 182 195 76 173 196 75 179 198 69 175 188 64 176 190 75 173 188 65 171 74 176 55 72 176 57 73 174 55 70 168 52 73 167 64 86 177 65 74 165 59 72 161 54 83 163 63 55 74 59 55 32 37 58 35 34 66 40 38 67 39 37 60 35 32 67 37 37 65 40 35 58 34 35 57 34 52 66 32 62 78 33 70 97 40 91 108 39 100 118 48 104 176 182 52 202 205 52 210 209 53 225 224 58 226 217 67 226 220 60 229 219 64 217 213 65 208 190 68 204 190 62 197 180 67 186 169 65 187 166 58 164 150 61 178 129 98 188 75 165 189 71 169 183 74 156 194 70 178 185 66 175 192 64 179 196 66 187 199 69 182 196 69 187 76 171 60 73 167 57 78 177 58 75 166 55 72 161 56 80 174 61 70 160 50 76 167 53 77 162 61 55 79 60 60 35 41 67 38 36 67 36 32 69 38 35 74 40 34 78 40 37 70 34 33 72 37 40 63 29 56 80 37 75 96 38 93 107 38 102 118 38 111 124 45 114 172 172 49 195 195 49 207 209 52 221 221 60 219 215 57 223 216 65 218 217 58 214 213 65 206 195 61 191 179 65 184 173 65 182 163 65 185 170 65 170 157 67 170 126 100 174 76 155 184 74 167 207 88 185 184 70 170 189 74 173 200 74 182 196 70 182 192 70 180 189 69 173 76 175 55 73 167 60 79 171 60 76 167 57 66 158 52 74 163 57 74 166 59 77 164 55 72 151 48 57 80 66 60 32 41 70 38 35 75 41 38 75 34 35 76 37 38 81 43 38 80 35 38 83 37 37 74 35 67 88 39 86 104 40 96 114 41 110 128 47 122 120 42 114 171 177 49 192 190 58 192 194 56 212 208 52 210 210 60 214 214 51 211 201 64 210 195 64 196 188 57 199 186 71 180 174 61 185 168 66 175 161 66 171 145 63 161 129 81 180 79 160 180 75 166 185 80 162 180 68 162 194 70 176 186 69 170 180 60 169 176 65 161 182 66 170 77 170 54 74 164 55 79 172 61 80 176 57 72 162 57 74 157 54 73 170 57 82 167 59 73 154 56 58 76 63 68 41 38 71 38 33 73 38 37 79 39 36 80 37 38 86 37 39 82 36 40 81 39 50 79 40 72 82 35 79 98 38 90 107 42 101 117 42 110 124 48 114 169 171 55 185 192 56 194 199 54 197 194 60 196 203 56 203 197 61 202 199 55 194 185 67 190 182 59 188 177 64 188 176 67 193 176 64 174 152 71 160 144 63 166 127 84 170 71 154 173 69 159 177 71 168 186 73 172 180 68 163 178 67 168 176 68 167 179 64 166 191 69 180 65 148 55 76 162 60 69 163 59 64 154 46 76 162 57 74 159 57 81 168 56 76 162 55 76 156 59 56 79 65 67 38 42 74 41 36 84 47 37 80 38 35 83 38 36 83 38 40 90 42 41 83 38 36 79 40 76 86 44 79 99 44 92 104 41 97 115 45 107 111 46 101 160 161 57 173 174 65 180 180 58 186 188 54 196 190 63 198 186 68 203 193 65 188 182 62 192 178 64 191 174 77 181 167 67 170 155 67 163 149 65 166 153 69 163 116 98 165 69 138 174 73 152 177 75 158 176 74 158 183 79 163 182 71 167 176 68 166 177 69 164 171 62 163 67 148 60 72 148 61 72 157 55 83 173 59 69 154 53 75 164 52 77 155 63 77 153 56 75 148 55 54 60 71 74 42 46 73 38 36 74 38 35 84 45 34 89 46 40 81 41 38 85 44 37 84 43 50 77 39 71 81 37 79 92 45 87 104 48 99 105 49 100 101 45 93 157 160 55 169 171 63 175 177 52 167 160 60 189 181 60 180 178 62 186 179 65 179 173 65 180 176 68 170 156 69 167 151 63 159 140 62 167 147 67 151 134 68 156 112 88 159 63 148 157 71 142 166 71 154 168 75 151 167 67 160 173 62 163 180 77 169 170 70 158 168 69 156 72 155 57 74 157 55 72 154 58 68 142 57 72 156 51 78 160 60 75 152 58 71 145 53 66 140 51 54 60 68 64 36 42 71 40 37 78 42 39 81 41 37 80 43 42 85 44 41 85 42 40 83 40 40 76 37 69 82 41 77 93 48 87 84 49 87 84 50 82 99 49 97 155 162 58 158 159 57 157 149 57 160 160 57 161 155 63 169 162 64 173 166 65 166 162 61 168 160 60 159 153 61 152 135 66 161 148 66 156 141 58 151 136 66 153 116 87 157 76 137 156 70 137 164 76 149 156 69 140 155 69 135 164 66 154 179 78 168 166 68 154 173 76 166 70 150 54 68 148 54 71 151 54 72 147 51 67 138 48 81 159 65 72 144 54 71 143 54 77 147 59 53 70 67 66 38 43 68 39 42 43 34 32 48 34 29 75 38 42 81 41 40 80 40 36 77 40 41 71 35 63 75 38 69 76 40 71 62 71 83 64 60 51 92 44 86 137 145 50 147 149 57 152 151 57 161 160 56 159 159 61 156 155 58 166 167 63 162 149 63 161 156 61 153 141 61 157 143 68 153 141 59 153 140 67 151 137 67 146 111 87 147 67 136 158 81 139 160 72 143 163 71 153 170 74 157 158 63 150 166 75 152 158 71 149 169 72 161 76 154 59 75 146 54 78 156 61 75 152 55 72 147 59 69 140 49 77 148 57 69 135 54 72 135 55 64 73 70 63 39 43 31 52 23 29 47 23 41 35 23 63 45 38 80 50 48 77 48 49 80 56 58 76 49 70 81 50 72 63 54 73 53 91 83 73 87 67 66 56 56 132 133 52 135 139 55 139 139 51 150 152 51 151 152 62 156 160 58 155 144 67 159 153 61 152 142 62 151 143 61 146 137 63 147 136 63 144 131 62 144 130 69 143 106 86 145 70 126 151 72 134 155 74 140 155 75 137 159 67 158 157 72 144 167 75 157 161 74 153 166 72 156 83 157 61 72 141 55 72 151 53 75 150 59 65 138 56 71 138 52 74 146 57 69 135 56 72 138 59 72 77 70 66 62 67 39 57 34 43 52 39 43 45 38 79 74 78 89 80 87 57 52 85 80 69 94 106 93 97 107 93 98 106 89 96 94 92 87 79 82 59 89 59 81 135 138 59 141 135 66 138 138 61 140 136 58 151 155 64 149 148 62 153 148 68 142 141 73 138 143 69 144 137 57 141 130 64 137 127 59 139 127 63 138 125 67 132 103 79 143 71 127 151 74 134 146 72 130 158 78 147 152 71 152 153 73 144 157 71 146 154 66 148 150 63 147 77 144 62 69 140 50 73 138 55 73 144 52 69 135 58 70 138 56 75 138 58 76 138 59 78 135 62 77 96 72 94 88 89 88 88 84 63 64 56 61 55 55 78 68 67 50 56 57 33 39 49 45 41 55 119 111 111 127 119 118 117 113 110 74 78 70 53 56 42 90 86 75 123 133 52 132 130 55 127 129 58 131 135 54 133 134 54 140 131 65 138 138 61 114 139 79 89 148 140 134 138 88 140 133 55 142 129 62 140 131 65 133 121 62 137 106 81 137 68 124 142 69 134 146 68 139 148 69 139 143 69 138 152 75 135 149 66 140 155 67 153 151 71 141 75 138 62 71 132 55 65 133 50 64 129 50 72 135 57 73 137 60 73 142 56 70 122 56 71 138 56 92 105 82 102 103 97 83 104 71 45 91 36 46 57 37 51 53 47 60 56 32 69 62 51 91 85 84 126 116 116 120 116 111 112 112 102 87 84 83 65 64 51 74 72 56 123 127 57 141 143 93 185 183 148 177 166 130 142 132 64 136 134 62 143 146 60 134 140 74 73 143 138 85 123 147 112 122 85 134 126 68 133 121 65 130 118 65 136 100 86 130 69 112 133 70 118 142 73 134 139 66 133 147 69 141 144 68 136 142 67 139 147 68 147 143 69 132 65 129 50 73 136 55 66 132 56 73 137 56 72 136 57 67 128 57 73 132 58 69 132 51 75 132 62 63 77 56 48 87 38 55 109 37 43 74 34 63 61 56 85 77 80 82 66 62 113 102 46 65 61 68 75 73 154 97 94 149 107 108 94 95 98 84 102 102 91 97 98 85 115 120 56 133 136 119 181 175 171 180 162 172 130 126 75 135 130 62 131 125 66 121 124 79 76 138 142 85 116 145 81 114 134 117 111 81 136 125 65 136 117 71 123 99 74 135 70 124 138 72 129 138 69 130 139 69 134 146 80 133 143 71 136 145 67 139 157 78 150 147 72 138 68 134 55 70 131 58 71 135 57 72 141 60 71 134 58 74 136 55 70 128 56 79 129 58 67 125 51 51 85 42 45 93 36 45 87 37 39 53 45 48 38 46 67 41 45 103 42 94 95 77 66 63 66 108 59 57 168 74 53 198 95 84 141 116 116 104 120 117 99 129 129 111 139 142 108 125 129 117 131 122 124 129 118 122 122 121 64 127 125 64 133 127 69 127 139 86 68 139 123 79 120 142 89 118 146 86 109 132 107 106 91 130 117 66 125 97 73 134 74 120 134 72 122 139 77 126 143 79 135 141 72 128 137 67 131 143 75 133 140 66 134 149 81 142 67 127 59 63 126 52 71 136 57 64 128 55 73 135 58 72 130 63 72 129 56 71 128 62 74 125 57 57 93 47 44 83 36 49 77 43 43 39 67 61 34 52 83 39 44 86 50 79 96 83 92 67 66 109 69 62 143 87 71 163 96 83 146 161 166 142 163 159 142 156 157 140 157 157 141 103 107 87 105 104 97 98 97 80 137 129 110 159 155 126 156 149 113 119 133 97 77 141 129 92 132 141 85 114 135 83 108 132 85 103 133 118 106 68 128 108 78 126 66 114 134 70 120 131 68 128 133 70 125 137 75 129 138 71 127 143 70 135 139 70 137 142 72 138 63 128 53 68 131 52 72 137 59 74 135 58 74 138 62 77 138 61 69 124 60 77 131 66 70 116 58 55 88 45 44 77 38 43 65 39 51 49 77 65 53 71 96 78 84 110 102 99 122 113 114 62 68 76 74 62 102 89 75 120 134 124 136 163 162 153 155 149 142 183 174 169 166 166 153 135 133 127 86 85 77 94 92 79 147 142 129 171 166 146 171 168 143 173 166 144 114 145 128 80 122 132 79 112 133 81 103 122 105 113 112 132 118 81 118 102 68 129 77 108 127 67 117 130 67 126 131 64 124 139 73 127 137 70 132 144 82 136 146 83 133 140 74 131 64 123 59 64 118 50 66 122 53 68 129 58 71 128 55 74 127 62 75 128 61 79 132 67 100 128 81 94 124 85 64 85 58 80 86 77 91 91 89 99 98 95 114 108 105 123 116 115 97 97 94 71 74 76 83 79 95 96 83 102 136 133 129 165 160 155 164 157 151 192 187 178 181 176 171 184 180 172 172 168 164 176 172 162 189 186 168 184 181 166 188 183 160 182 181 161 173 161 150 89 126 118 81 108 131 97 106 105 144 132 118 166 149 144 153 129 132 136 93 127 130 74 118 133 65 124 135 74 121 139 79 133 133 74 129 149 82 137 141 72 135 142 80 134 65 123 51 70 122 56 76 130 61 77 133 58 71 130 58 74 126 61 78 121 63 128 141 120 120 128 110 128 140 119 86 92 77 63 69 58 72 76 70 98 99 93 102 99 92 119 122 114 67 77 63 64 73 59 63 61 59 76 69 70 166 153 155 186 176 173 189 180 167 189 184 177 190 184 175 196 191 184 188 186 176 189 182 169 176 178 166 185 182 166 186 185 164 175 170 158 148 144 131 86 94 83 83 93 97 83 79 67 90 76 76 102 82 86 141 117 124 148 125 137 143 113 129 136 80 124 130 73 122 134 78 119 130 70 122 138 75 136 131 74 120 142 78 139 67 125 53 67 121 57 65 116 57 68 119 58 80 128 71 81 127 70 120 142 112 136 150 121 132 147 119 137 147 126 130 143 120 92 102 88 78 84 71 99 105 96 131 137 125 159 157 153 125 127 125 98 102 100 117 115 113 150 140 143 192 181 171 177 166 165 185 179 172 199 199 185 194 181 177 191 187 177 184 173 164 194 187 177 187 185 171 196 195 179 185 185 174 176 175 154 169 161 150 95 94 83 80 79 75 84 75 77 87 71 74 117 99 102 163 141 154 158 137 141 165 142 149 165 146 151 139 96 128 135 70 126 127 71 116 138 77 130 140 77 138 136 76 122 63 118 56 67 120 56 80 129 66 69 126 58 101 136 89 131 139 119 128 143 122 136 155 128 131 146 115 117 130 105 96 105 90 85 92 77 78 90 66 81 80 72 102 107 93 145 152 138 172 177 164 173 172 167 181 180 175 188 186 173 189 182 179 178 172 169 193 185 177 199 182 183 196 192 178 199 196 188 201 192 188 197 198 182 177 178 173 191 181 178 180 178 173 169 169 163 177 168 163 163 154 153 87 77 82 87 76 78 94 88 83 152 131 141 176 151 168 171 151 153 175 151 159 160 142 154 157 138 147 154 117 143 136 82 126 139 77 130 128 69 122 139 74 133 68 122 56 74 129 59 96 134 79 113 132 105 126 145 121 133 147 122 122 135 115 97 108 89 72 85 65 69 87 60 66 75 58 68 75 61 65 73 58 69 75 62 66 66 60 111 117 107 167 162 159 172 170 163 191 187 178 192 184 176 184 176 178 189 178 179 192 188 181 196 192 188 196 188 182 202 193 191 194 189 180 199 191 187 188 179 175 186 177 174 186 178 166 197 193 188 185 181 173 176 165 165 126 114 113 85 72 74 131 118 121 176 159 165 164 145 155 160 142 147 163 137 157 163 149 151 162 147 146 163 141 149 150 120 136 139 83 131 129 75 126 128 67 120 70 127 58 104 136 94 117 132 101 129 144 123 123 141 119 116 128 104 87 101 76 75 84 61 65 88 57 72 79 59 75 82 59 69 77 62 66 73 64 70 71 62 74 74 69 104 102 92 171 167 166 181 177 170 186 179 174 190 187 173 195 179 176 196 195 184 193 186 180 197 191 182 190 189 178 191 187 182 195 186 176 195 186 183 190 180 179 190 186 180 188 182 171 184 178 167 193 178 177 184 177 171 165 153 159 121 102 116 182 165 170 182 165 168 177 154 168 171 149 161 180 153 166 169 154 153 170 146 156 161 141 149 164 140 148 157 126 147 138 92 136 133 73 122 119 138 109 130 141 118 130 141 119 125 137 118 101 117 95 75 91 64 68 73 54 73 79 62 68 75 57 67 77 58 69 72 60 76 77 61 71 75 63 72 71 64 74 76 61 132 131 119 174 173 162 183 173 170 186 178 173 182 172 174 198 191 185 202 190 186 200 192 185 199 191 182 195 187 176 190 180 178 188 188 177 198 189 185 197 192 180 187 184 177 187 179 179 193 184 181 193 179 181 177 167 168 186 172 175 171 159 166 178 159 167 184 175 169 179 163 166 181 163 166 181 158 169 166 147 155 175 149 160 168 145 162 162 144 146 159 133 144 161 139 150 159 131 151 137 150 125 134 143 121 117 130 112 98 110 90 74 87 70 69 80 58 63 78 59 68 76 62 63 74 56 68 83 58 65 72 61 72 79 61 73 79 64 75 78 63 86 84 79 158 152 147 180 177 173 174 171 160 174 171 168 179 177 170 183 172 170 191 179 178 194 189 181 189 178 175 207 201 186 187 182 181 189 184 181 188 178 173 196 191 185 190 179 178 194 189 187 195 185 184 198 178 182 181 169 171 182 171 169 179 163 167 181 156 172 179 164 170 181 167 166 177 152 162 169 150 156 165 152 153 168 146 158 171 152 151 169 147 159 167 141 157 158 136 145 153 135 146 135 152 124 125 141 117 107 117 98 89 103 82 69 85 64 69 84 61 67 78 55 67 71 62 74 83 64 66 76 61 66 80 56 70 79 62 75 78 66 84 84 71 137 138 130 172 164 164 185 173 172 174 169 167 189 178 172 188 184 179 191 185 181 184 176 175 199 190 189 193 183 183 187 180 177 197 191 181 185 183 173 191 182 175 190 178 176 196 186 180 206 187 190 185 174 172 188 170 173 180 168 167 183 164 172 187 171 168 180 164 168 173 157 159 182 165 172 169 146 158 170 158 160 167 151 159 168 149 158 165 144 153 159 141 151 162 142 149 166 147 156 158 137 151 122 133 116 122 126 112 103 118 96 86 97 81 75 82 68 70 76 62 65 73 61 69 79 61 66 73 58 68 69 62 71 83 62 75 72 66 81 84 73 125 131 121 182 182 160 174 172 167 175 167 166 179 165 168 178 170 170 194 186 181 186 183 174 188 178 179 196 185 184 199 187 182 191 182 176 192 183 172 199 187 175 184 180 174 195 181 183 194 179 180 190 180 181 179 173 169 181 170 170 187 171 173 187 171 174 177 160 168 184 164 165 180 162 170 176 153 158 176 160 161 181 158 167 169 148 157 167 150 154 163 140 155 170 150 161 167 149 152 167 141 161 159 139 145 137 147 131 123 137 116 109 119 101 88 99 82 82 98 79 70 85 66 67 79 61 67 75 61 67 81 59 69 77 61 77 78 67 87 87 88 138 140 130 161 158 155 173 169 163 172 171 162 181 180 176 182 175 172 189 185 172 188 178 183 186 182 176 190 185 174 195 184 184 199 187 184 196 193 191 194 185 175 185 176 169 187 179 174 183 175 168 192 181 171 191 174 180 187 178 174 183 166 174 182 174 171 183 171 165 176 161 158 181 160 169 177 160 164 184 168 165 182 169 168 172 152 159 172 144 160 163 142 154 164 148 154 165 149 157 164 152 155 159 141 153 167 141 159 139 148 134 121 133 114 117 126 114 107 109 101 92 101 85 83 93 78 77 84 72 83 95 72 82 92 77 89 98 81 112 115 107 141 148 134 174 168 161 176 172 167 162 164 156 168 161 162 183 176 174 179 168 168 178 171 168 193 194 183 196 190 176 194 186 179 188 185 179 191 183 177 183 170 167 196 184 180 192 179 177 189 184 172 182 177 165 187 176 171 186 177 176 183 168 172 188 173 180 183 167 167 179 165 169 182 165 170 185 168 170 177 162 165 168 156 158 177 161 162 163 152 151 179 157 165 171 145 164 171 153 158 172 151 159 169 151 152 169 151 160 164 141 152 