P3
48  48
255
86 99 72 87 97 69 91 103 69 97 98 85 95 114 83 93 109 85 92 101 76 106 102 88 97 103 86 103 98 87 99 109 81 95 104 81 107 100 83 107 102 80 115 115 90 99 100 81 102 109 90 99 97 84 103 98 77 108 104 90 98 105 98 121 113 102 107 103 85 111 108 100 112 112 98 118 116 96 102 96 91 120 119 92 112 101 84 110 105 85 113 107 98 113 103 83 122 105 87 114 113 92 119 108 90 113 106 86 108 105 80 115 107 88 122 111 76 113 108 84 136 116 86 119 113 91 119 101 81 120 112 89 114 98 83 120 110 87 119 119 78 110 110 78 95 100 81 95 111 75 97 107 82 98 100 84 87 98 75 97 98 77 95 103 85 87 100 72 103 115 90 90 94 80 106 109 86 91 100 87 103 113 78 108 115 87 88 95 92 109 101 89 114 107 103 103 106 83 115 119 93 120 110 95 121 126 116 132 131 130 127 126 123 134 135 137 128 128 124 125 123 123 138 130 134 143 139 125 116 108 87 107 96 88 123 112 100 113 99 86 119 108 92 120 101 85 119 99 92 123 113 89 116 114 85 117 97 76 126 106 90 122 117 78 120 117 97 121 108 91 121 107 97 121 121 79 122 108 85 119 116 80 111 106 84 118 112 72 83 95 73 98 98 80 88 99 70 89 107 78 100 108 84 96 102 78 102 106 78 89 92 74 97 105 80 98 104 79 92 105 79 104 112 91 99 103 85 101 109 92 98 104 85 96 104 86 117 119 97 92 101 77 104 107 94 109 112 100 188 187 187 196 195 195 204 204 204 202 202 201 212 212 212 206 205 205 212 212 212 184 177 175 115 103 98 121 106 88 101 90 81 114 104 81 116 108 86 111 100 92 125 107 92 117 112 92 119 110 87 103 104 83 115 108 86 114 104 81 116 106 81 125 107 79 117 110 79 114 108 80 124 109 83 121 104 82 121 116 81 115 109 75 103 106 88 92 101 78 113 116 79 93 99 83 103 110 80 91 105 74 92 107 84 96 99 78 104 115 89 98 97 84 94 108 78 101 99 80 102 102 82 99 106 87 95 93 76 106 104 90 105 95 85 109 107 94 106 98 85 108 108 91 177 177 176 212 212 212 212 212 212 212 212 212 212 212 212 212 212 212 212 212 212 187 182 179 114 109 95 116 107 82 113 105 92 125 107 90 119 109 89 116 108 82 132 121 103 114 102 73 108 96 82 120 107 85 112 104 81 112 102 85 121 111 85 124 115 82 107 97 79 122 116 83 106 99 77 113 112 81 111 103 80 122 113 84 86 101 70 94 105 81 86 93 75 89 106 75 89 100 82 88 97 72 89 108 79 91 104 70 99 105 76 101 112 83 101 110 86 99 110 80 100 112 81 94 94 84 103 101 89 96 98 80 112 107 97 107 113 78 107 113 84 122 114 95 144 151 141 212 212 212 212 212 212 212 212 212 212 212 212 212 212 212 212 212 212 177 172 164 129 112 102 117 108 93 114 94 92 116 99 86 117 102 90 110 105 93 118 107 93 113 97 86 119 115 92 115 93 77 124 104 87 124 116 96 127 108 103 105 109 70 128 121 90 124 109 87 115 110 84 117 104 79 105 96 80 107 100 79 89 95 78 88 95 74 95 104 79 99 101 82 100 104 76 95 100 87 88 99 73 98 103 82 90 97 72 96 106 88 100 115 81 91 104 77 99 108 89 103 107 92 99 106 86 94 106 81 94 100 87 103 102 90 105 112 92 99 108 91 154 154 141 212 212 212 212 212 212 212 212 212 212 212 212 212 212 212 212 212 212 160 149 140 104 106 87 112 106 88 125 111 92 114 111 85 114 103 82 117 111 82 112 97 76 113 105 78 120 109 80 120 117 80 116 105 79 115 111 81 104 96 72 121 103 77 117 111 73 120 115 85 119 101 81 113 104 83 106 100 77 104 100 69 68 93 46 87 99 64 95 101 75 91 106 79 94 97 77 89 107 75 95 115 80 95 109 79 98 110 83 83 100 81 109 117 93 98 109 81 93 98 78 99 97 88 100 108 83 103 104 86 97 103 75 109 113 95 105 103 94 108 97 74 132 135 123 212 212 212 212 212 212 212 212 212 212 212 212 212 212 212 212 212 212 125 116 96 109 101 82 117 101 92 116 102 89 119 102 87 105 93 79 111 99 79 112 104 86 109 100 84 122 115 83 113 111 79 113 111 76 122 113 86 118 113 82 109 98 71 107 102 77 114 108 78 111 99 77 104 100 71 100 97 63 97 96 47 83 108 54 71 88 50 83 100 59 79 91 67 107 109 86 90 96 70 97 107 83 85 93 74 102 105 79 103 99 70 93 102 86 90 89 75 98 109 82 99 114 84 106 114 92 116 108 103 110 108 87 99 98 84 99 98 78 99 103 81 117 118 99 212 212 212 212 212 212 212 212 212 212 212 212 212 212 212 212 212 212 130 123 106 129 113 88 116 101 80 116 101 73 117 104 80 121 102 75 122 108 88 122 109 77 110 95 74 116 114 80 113 110 75 112 97 78 120 112 89 121 97 77 110 98 79 117 101 74 110 94 81 99 87 66 94 87 52 104 93 47 104 100 52 74 110 54 76 119 51 77 108 47 73 101 46 89 98 65 88 102 76 88 97 80 93 100 76 95 109 84 101 101 80 95 101 75 94 105 75 98 104 83 102 105 84 98 100 79 105 99 84 112 107 84 107 100 94 102 105 76 108 104 86 105 105 86 201 199 196 212 212 212 212 212 212 202 200 198 212 212 212 212 212 212 132 108 87 108 97 83 111 94 72 113 99 74 105 108 83 113 105 88 128 121 77 128 114 94 129 109 86 123 105 88 112 106 68 119 100 82 114 101 90 119 111 94 119 108 91 120 101 82 102 96 62 99 92 50 100 98 46 119 111 53 120 115 48 62 115 46 75 112 46 64 97 52 79 105 51 72 96 50 66 87 48 84 92 64 94 105 77 92 96 77 94 100 76 104 104 76 99 100 85 108 115 89 93 110 74 101 100 79 95 98 74 110 113 84 99 109 95 98 98 80 99 103 91 102 100 85 115 109 88 101 90 83 109 97 88 109 99 80 132 114 91 116 108 92 109 103 89 109 97 76 111 91 83 118 104 78 107 96 73 115 93 67 125 101 83 109 100 72 116 103 79 126 111 86 119 105 73 119 101 83 106 95 74 110 99 76 106 91 66 94 91 54 102 103 46 111 110 54 125 119 52 119 119 45 140 122 57 84 132 51 73 123 48 67 123 51 73 128 50 70 117 55 64 103 43 78 96 57 93 104 72 99 107 74 90 92 76 100 109 65 85 89 72 95 101 82 97 99 83 105 104 81 100 93 85 108 104 89 95 87 76 103 104 86 114 114 97 105 101 89 103 102 80 108 105 80 118 110 82 107 97 80 110 100 77 121 105 90 125 107 87 121 112 83 118 103 84 107 100 81 118 104 79 106 86 77 111 100 85 113 100 69 121 103 83 115 100 72 110 98 75 114 101 76 117 97 81 100 91 64 97 95 51 107 103 51 112 111 48 126 121 49 139 132 56 148 135 63 139 145 60 71 141 52 76 137 53 77 128 49 85 137 56 76 120 48 70 113 52 67 97 47 64 94 47 85 97 60 89 94 75 85 96 70 98 93 82 92 102 76 93 109 78 91 93 73 108 98 87 101 107 77 96 102 80 108 101 84 107 99 83 104 96 77 108 102 81 107 90 78 115 101 80 115 109 89 122 104 82 118 98 97 119 104 72 113 91 86 111 93 70 116 102 73 110 86 66 130 94 81 117 93 84 129 107 82 117 99 83 107 90 63 110 91 72 107 91 72 99 93 60 110 101 51 111 100 46 122 116 49 140 127 60 143 136 63 156 149 53 141 132 49 156 164 54 66 143 50 84 149 47 80 137 50 72 126 44 75 126 48 77 120 46 70 113 49 79 110 53 80 106 58 65 66 48 65 69 53 71 78 61 85 80 73 93 86 73 95 92 83 94 93 77 98 89 71 99 102 81 108 92 80 99 91 76 92 100 68 93 88 76 110 94 92 113 98 78 107 101 82 106 95 78 114 100 79 132 105 89 108 101 79 111 96 73 120 94 76 121 94 76 119 85 70 115 97 80 106 93 71 100 82 63 110 86 59 104 70 64 97 72 48 103 89 46 111 108 49 126 123 51 136 132 49 145 145 45 149 144 58 154 151 52 170 164 58 169 161 58 75 153 49 79 153 50 79 155 48 77 141 55 66 135 47 78 133 51 75 122 45 66 121 48 70 109 48 62 65 44 57 59 45 65 63 51 57 57 45 61 58 48 70 70 58 75 78 67 76 80 63 91 85 80 81 76 62 108 94 84 96 86 70 100 99 74 105 99 76 110 104 90 111 104 81 120 100 75 107 87 71 109 87 65 107 91 73 109 91 79 98 70 58 110 76 68 104 76 56 116 73 53 113 66 53 109 65 48 114 63 54 106 61 46 105 74 48 125 133 44 131 135 46 145 141 54 155 144 47 155 159 48 159 151 50 173 174 54 170 164 53 186 185 57 71 157 57 79 158 60 78 157 48 78 144 48 74 139 47 72 141 43 67 128 40 74 124 54 72 118 42 64 89 49 61 64 51 59 62 49 62 63 53 61 60 52 62 60 48 65 69 53 69 69 51 67 60 50 59 57 51 71 66 58 77 72 62 91 77 67 87 76 65 94 79 67 97 77 70 102 82 71 99 64 63 100 73 54 104 73 53 107 64 41 126 67 52 130 72 49 120 61 57 119 63 51 124 62 57 128 67 45 131 72 51 123 59 53 120 80 45 136 126 50 150 142 48 157 144 51 156 161 51 170 165 47 175 171 50 180 164 56 168 163 46 181 167 55 72 167 52 70 153 47 76 159 57 84 163 55 76 154 60 73 149 48 76 140 53 77 140 46 75 128 44 69 90 53 65 70 57 70 70 64 64 60 53 60 69 53 67 68 60 73 72 53 65 60 54 72 64 61 66 64 52 67 63 50 78 71 52 66 61 49 63 52 46 70 61 53 98 61 47 103 63 43 119 75 48 133 66 53 135 66 50 158 64 55 156 64 53 170 81 63 152 67 44 157 77 58 153 74 53 151 75 49 145 71 49 141 66 48 128 76 41 146 139 41 155 155 48 167 164 57 173 171 48 164 153 46 172 168 52 189 186 48 197 210 56 178 176 36 77 165 60 77 167 60 73 151 50 72 159 45 66 144 48 67 146 44 78 156 50 82 153 51 80 136 51 71 96 61 60 63 53 62 68 54 60 62 52 58 63 48 66 67 52 73 71 66 99 100 94 96 91 86 88 80 72 80 75 64 68 61 51 74 58 53 91 65 51 73 61 50 142 74 56 135 70 55 158 64 56 170 72 58 159 61 52 174 67 58 165 67 53 187 66 58 171 63 56 172 66 49 171 65 61 154 67 50 149 63 46 156 78 42 152 100 45 151 131 49 165 161 53 182 173 44 178 169 54 175 174 48 178 169 52 184 184 50 190 185 60 196 193 50 87 173 48 78 156 46 75 162 53 75 165 51 79 155 51 81 170 60 73 160 52 70 147 43 78 140 45 71 94 61 58 57 56 70 72 56 63 65 58 66 63 55 73 68 62 78 75 67 91 94 86 114 112 110 99 95 86 71 64 52 73 63 53 82 67 51 85 70 58 78 65 47 146 58 52 163 64 45 173 72 58 184 67 52 194 83 52 204 67 57 213 60 54 182 65 55 194 66 53 196 90 51 182 71 54 179 74 52 170 65 54 152 70 41 152 83 47 162 157 44 183 180 49 182 165 45 191 180 53 193 179 55 201 196 62 181 186 51 203 186 49 196 185 61 74 178 56 81 178 50 71 168 46 81 174 51 76 168 49 75 150 54 70 157 47 71 147 50 79 151 47 55 74 49 61 51 59 63 61 60 60 56 56 66 59 58 70 67 60 73 61 61 66 63 57 67 58 54 79 71 63 75 65 51 68 66 50 73 68 47 67 64 44 71 68 40 177 69 67 179 66 57 200 71 52 206 70 57 201 75 54 214 74 54 210 64 53 196 71 62 207 68 56 190 73 52 178 64 54 189 84 64 177 74 57 177 77 61 168 111 48 172 161 41 180 166 56 189 183 53 189 180 50 195 188 46 180 176 63 189 190 44 196 196 52 195 179 47 75 172 50 77 165 42 78 175 56 69 135 60 87 175 63 68 161 54 87 172 56 80 160 47 84 161 56 56 73 51 59 42 55 64 37 55 67 42 58 58 37 54 70 49 56 70 46 56 61 41 55 62 52 50 62 64 39 61 58 36 71 71 37 77 74 31 85 85 31 84 86 32 160 68 42 195 68 54 205 70 53 225 75 55 208 62 57 214 69 57 224 67 56 201 69 59 214 68 59 199 71 56 190 73 52 176 70 54 180 77 60 161 83 56 162 85 57 183 167 54 184 168 52 190 178 51 183 172 58 186 182 47 193 188 58 205 195 53 185 179 52 198 198 59 78 164 45 84 175 63 84 180 53 71 168 48 78 161 55 73 171 48 85 175 43 83 159 45 76 147 47 61 84 60 62 37 60 69 43 62 74 39 64 72 40 59 75 44 66 73 43 60 75 37 61 70 49 53 64 54 37 81 77 36 85 81 38 97 98 32 114 106 36 107 105 33 188 74 62 196 72 56 212 77 60 218 75 54 218 72 56 225 73 58 210 69 49 227 67 57 203 64 58 199 74 51 191 81 48 191 83 66 189 81 66 180 75 54 164 95 43 162 153 44 188 181 49 194 188 50 196 200 48 187 184 53 180 167 62 189 189 57 193 189 54 198 197 50 70 168 50 63 156 48 79 185 53 76 170 51 73 163 46 84 164 56 85 170 55 84 170 50 78 151 47 46 38 64 64 39 66 72 39 69 72 44 65 73 43 64 82 43 68 78 43 63 79 44 64 73 48 53 71 65 35 90 85 40 95 92 34 114 112 36 114 113 34 120 111 28 182 66 46 190 60 61 206 71 54 202 68 46 210 68 52 210 77 51 217 66 55 210 71 64 213 72 62 206 76 61 190 76 63 187 72 60 177 75 57 174 67 50 171 108 59 184 171 53 184 170 50 189 172 46 190 183 54 188 169 45 193 180 57 199 192 60 186 174 50 195 181 59 78 166 57 71 166 50 87 179 51 76 166 53 73 160 50 81 173 50 71 148 47 79 161 51 88 173 48 52 69 65 68 42 70 80 43 77 79 49 69 86 48 72 81 40 76 80 44 66 80 39 67 92 54 70 75 70 36 91 90 36 104 97 38 110 104 35 128 119 36 122 120 37 177 66 51 192 74 51 199 67 49 202 78 55 211 68 59 211 78 64 215 71 61 190 65 43 212 77 67 189 80 52 183 66 67 194 83 52 186 80 60 174 74 53 165 102 52 178 164 45 190 168 52 175 173 60 170 160 46 174 177 55 186 181 52 191 181 55 190 194 51 181 174 51 77 158 54 87 175 53 74 159 58 85 171 58 74 165 54 83 164 55 75 153 51 72 149 42 77 153 51 55 61 70 78 43 73 80 49 77 82 47 70 81 39 72 85 47 79 92 47 78 83 51 69 94 56 77 81 72 39 95 94 38 95 91 38 119 111 40 112 112 36 114 111 42 158 65 48 174 66 53 197 73 61 194 78 56 200 74 52 210 81 60 197 75 58 185 74 46 186 76 59 185 79 56 178 82 58 180 77 67 183 74 65 167 72 49 165 92 49 168 163 50 178 167 54 176 174 49 183 164 62 177 181 49 189 187 54 177 176 57 180 177 54 180 174 60 86 188 62 84 166 57 76 152 50 82 164 53 77 159 47 71 151 46 83 159 52 72 158 47 80 154 42 59 79 63 82 48 76 82 43 73 85 44 74 90 43 78 85 42 73 86 44 73 90 40 78 90 43 68 83 79 40 94 94 42 99 99 42 108 110 34 118 115 39 119 116 37 154 67 48 173 72 51 190 76 57 178 72 52 200 80 61 178 67 54 194 77 59 184 79 58 177 66 66 182 74 51 180 67 52 167 70 59 162 69 58 158 78 55 155 89 54 172 164 53 174 162 57 187 171 56 176 161 63 175 174 53 174 161 55 176 163 51 182 173 52 172 176 56 70 154 47 63 150 44 72 141 48 74 163 54 80 154 62 75 160 44 78 162 49 74 149 43 90 161 57 62 72 63 70 37 75 80 43 76 83 42 76 93 52 81 82 49 81 62 46 127 67 44 132 88 47 88 77 75 39 86 85 40 95 92 39 99 101 36 102 106 41 106 103 34 151 66 55 167 69 58 181 81 65 181 78 60 180 77 55 187 71 56 178 69 53 175 75 52 174 70 60 179 71 72 176 87 59 158 73 50 167 76 61 155 69 46 171 116 56 160 160 48 169 162 54 179 178 55 184 164 59 169 165 60 166 152 59 174 180 56 176 169 57 168 164 60 74 152 48 75 157 57 68 146 48 83 170 50 73 158 52 76 148 48 79 154 51 84 161 59 79 149 55 57 65 70 69 44 69 75 41 69 89 42 80 83 45 78 64 48 68 41 44 71 51 40 82 78 52 66 77 74 40 86 83 46 95 93 41 103 98 44 91 95 46 101 103 38 152 76 56 155 72 47 172 78 60 164 63 52 168 76 56 170 73 59 161 67 52 176 72 60 168 75 59 169 74 60 163 76 61 166 72 54 156 74 57 170 83 66 158 91 55 167 153 54 174 159 55 165 155 50 167 161 54 158 153 58 163 162 55 181 165 58 179 177 58 164 157 57 85 156 59 69 148 62 96 167 61 81 159 53 72 152 51 82 149 63 85 143 59 83 150 47 77 144 48 71 92 77 73 49 75 72 42 64 55 43 56 57 43 48 69 45 68 44 46 57 57 43 59 77 56 60 77 75 39 87 86 43 92 97 44 69 90 66 68 70 52 93 99 46 147 73 57 156 67 57 163 88 58 172 81 68 168 79 67 161 78 55 167 68 57 170 69 58 163 74 54 169 78 51 173 78 55 155 75 57 165 78 57 155 75 58 147 99 59 150 143 47 159 161 60 160 160 53 163 169 53 169 164 58 182 181 71 164 162 66 170 171 58 166 153 53 75 151 54 76 143 55 79 157 55 82 151 51 82 161 55 76 135 51 75 130 52 75 141 48 93 157 62 63 76 69 57 41 71 39 63 29 28 50 20 41 30 20 61 47 29 84 56 75 85 57 75 84 58 73 89 83 61 84 81 43 81 92 67 55 94 87 55 54 124 59 65 240 81 71 255 99 66 177 157 78 63 157 77 66 156 68 61 160 74 64 164 74 61 152 74 50 151 76 63 153 70 53 153 64 60 151 79 58 150 70 61 152 79 59 148 97 53 152 146 55 155 152 58 151 148 55 155 154 53 168 164 66 166 154 49 168 165 62 155 153 57 156 169 54 83 150 60 74 148 48 72 139 49 76 151 50 83 144 57 79 154 52 90 154 64 81 149 54 92 142 61 80 98 64 76 73 81 40 58 33 46 64 39 55 51 48 85 72 73 99 91 88 109 102 95 117 115 99 108 104 90 109 107 89 98 94 94 52 61 200 60 62 203 62 51 226 69 59 208 71 64 188 95 73 186 138 80 92 152 81 59 154 80 62 147 73 52 134 92 79 143 79 66 156 73 66 158 73 66 152 74 60 154 75 56 144 76 55 138 73 55 149 136 62 151 139 55 152 147 55 157 162 57 154 161 53 161 158 50 152 143 59 170 161 64 160 159 55 74 160 57 77 152 50 76 151 65 66 137 52 70 129 50 70 137 55 84 143 50 82 142 51 74 134 52 90 101 80 95 93 93 79 89 75 46 47 46 59 52 54 58 51 45 66 60 47 84 76 73 120 110 109 120 111 108 119 113 105 77 76 119 57 52 148 49 53 144 71 60 163 66 57 158 78 65 155 71 63 142 103 76 132 150 76 68 147 70 63 133 67 43 134 94 78 89 137 120 133 95 77 146 77 58 140 74 49 152 75 57 145 77 51 150 82 59 153 153 65 150 151 54 146 141 59 145 152 54 147 152 50 154 164 67 160 158 58 163 160 63 155 150 58 76 144 55 74 148 57 80 137 56 73 145 56 80 148 47 91 157 65 77 148 60 78 141 48 79 136 58 97 111 82 104 111 102 78 97 65 45 84 30 55 58 46 73 70 64 65 50 35 97 71 58 122 120 109 125 121 106 106 106 95 60 77 102 48 56 103 61 58 111 67 54 124 59 54 121 69 54 116 81 65 112 85 72 112 129 79 79 148 81 66 148 73 55 139 93 82 78 154 123 96 166 127 125 84 72 137 76 57 143 72 57 147 64 59 148 80 60 136 132 53 149 157 51 155 157 59 152 136 62 152 150 62 157 158 63 149 143 56 152 159 60 153 157 57 72 138 53 69 130 52 81 149 64 83 150 56 79 135 48 74 132 52 77 136 40 91 139 66 78 135 53 68 89 57 55 90 38 50 98 36 54 90 38 63 68 53 73 71 68 84 76 40 122 47 37 101 96 84 114 106 93 94 102 90 59 64 86 52 60 87 52 52 96 61 52 98 68 57 103 70 63 90 83 59 96 88 79 88 132 72 70 164 82 75 153 88 69 145 88 73 83 168 138 88 162 117 89 147 107 126 118 74 142 73 58 140 80 57 128 85 51 155 151 61 138 142 64 144 145 64 148 148 52 154 156 64 147 145 57 149 145 57 149 144 61 151 159 54 76 147 54 82 139 59 79 140 56 80 131 55 79 141 53 83 140 63 80 141 57 81 129 49 66 125 52 63 88 48 51 98 38 48 91 38 45 64 47 57 51 59 72 52 56 65 73 51 105 74 41 94 82 68 98 96 86 87 83 82 58 74 91 59 58 91 57 53 96 71 60 98 63 57 90 78 65 97 82 64 100 80 71 82 128 82 72 145 75 58 145 86 68 134 94 80 80 148 122 91 152 134 83 141 111 92 136 104 121 103 73 141 86 61 133 91 57 141 122 50 140 130 58 140 134 61 137 126 57 143 141 61 142 146 58 151 145 62 153 161 68 162 167 68 75 134 55 73 140 60 76 138 61 77 136 60 78 138 54 84 132 59 77 131 56 77 135 50 85 137 59 67 101 49 54 92 40 49 82 43 48 49 72 72 46 74 86 49 84 67 66 65 95 90 67 125 122 105 147 149 127 156 141 130 64 76 89 56 54 89 63 69 101 60 54 96 71 54 95 73 61 90 77 59 90 90 76 98 181 148 130 163 137 117 171 135 121 140 119 103 72 127 120 82 156 131 88 157 122 87 137 112 90 135 101 126 99 70 140 93 59 132 128 54 136 129 51 142 136 59 146 153 66 141 139 57 154 153 66 139 138 59 152 153 67 136 138 60 75 136 60 80 141 60 72 139 51 78 140 56 80 132 52 83 140 58 80 120 49 73 133 60 77 129 56 62 101 49 52 86 41 49 78 42 61 59 76 71 58 81 92 84 85 92 90 78 129 121 107 145 152 136 174 173 153 174 173 157 116 119 123 73 75 105 60 61 97 79 63 106 77 66 99 78 63 99 82 72 94 127 98 118 174 171 148 175 158 149 180 162 140 182 160 139 112 137 124 84 143 128 83 145 118 86 136 112 112 133 106 149 98 87 138 96 67 143 125 60 139 137 62 144 142 59 150 154 65 149 134 58 155 152 68 144 153 72 142 138 65 141 150 66 84 147 63 73 133 57 72 139 45 75 142 65 84 142 66 79 134 64 82 143 58 83 135 55 95 129 77 117 128 100 64 78 53 88 95 79 91 94 85 96 101 88 91 82 81 108 104 95 141 142 125 160 160 139 174 173 154 153 147 130 157 148 134 80 84 104 70 62 104 70 71 105 77 70 99 81 67 107 118 113 113 172 154 148 184 168 159 179 165 153 190 171 156 176 162 150 176 158 140 100 136 123 85 144 126 117 129 103 163 143 122 156 139 118 148 136 114 147 139 90 142 133 59 146 142 69 154 154 70 147 151 63 153 161 84 141 141 62 144 144 68 138 146 60 75 132 50 76 133 53 71 137 60 77 125 63 81 132 58 77 137 55 89 136 65 120 148 104 126 144 110 147 152 126 94 97 81 67 77 62 86 91 81 98 100 93 104 105 90 114 113 98 157 168 138 174 178 153 164 161 151 183 187 158 190 190 172 186 176 161 119 110 114 90 85 113 84 76 100 123 112 125 160 145 146 185 174 164 188 168 154 163 172 154 184 180 159 172 169 145 163 142 131 105 101 82 97 135 112 108 92 71 111 94 75 121 102 77 127 118 98 159 143 129 154 142 101 151 135 71 135 133 64 155 151 72 145 146 65 151 155 74 142 150 63 138 134 64 84 127 54 71 129 53 90 136 67 71 134 56 79 134 59 92 138 82 127 145 112 141 153 130 135 141 123 136 146 125 163 161 133 130 134 114 97 99 82 102 104 88 132 130 119 174 175 153 171 162 141 168 159 144 198 182 166 170 170 140 193 184 169 182 170 161 178 172 163 194 184 170 194 179 154 190 183 157 191 184 167 195 186 174 184 171 159 186 171 161 175 174 159 177 174 159 188 189 175 115 122 103 94 98 85 97 94 74 101 91 84 129 125 96 156 151 126 178 168 135 162 159 134 164 155 121 141 137 83 136 139 66 143 143 64 143 146 65 143 146 66 147 140 59 83 143 58 78 136 53 78 133 60 75 136 65 122 141 97 123 141 102 134 149 114 131 144 123 120 141 116 113 126 102 108 119 93 97 92 72 94 91 68 104 107 85 121 117 104 161 158 139 177 167 156 173 167 149 172 179 154 171 169 156 193 185 166 179 163 152 191 184 166 207 189 180 198 194 180 196 194 179 202 195 176 188 184 171 205 199 179 182 169 156 196 189 174 182 176 163 189 186 170 153 151 136 112 106 81 99 102 83 102 99 71 162 160 139 180 180 149 177 167 137 176 165 141 165 155 129 155 148 118 152 141 92 138 135 64 145 148 77 141 152 61 138 136 64 85 135 65 74 121 49 85 132 71 133 145 112 138 152 126 128 138 116 131 135 113 106 121 87 90 106 79 87 94 64 88 93 72 85 95 72 82 89 67 79 95 66 89 84 69 115 116 96 179 165 144 169 159 148 180 181 162 189 187 178 188 184 175 187 179 163 196 182 173 193 187 168 199 182 166 202 197 172 179 173 158 182 177 154 181 181 163 193 194 182 200 182 177 189 179 175 177 179 166 191 180 168 120 119 103 102 102 77 155 152 124 176 177 154 171 162 140 163 161 133 180 169 145 180 172 149 159 148 129 163 153 132 166 156 128 140 138 70 140 137 62 139 136 63 73 125 53 108 139 89 137 155 118 131 148 117 125 135 110 113 125 104 100 106 86 84 92 71 82 100 69 85 94 68 86 88 71 87 89 74 88 86 71 86 86 72 88 94 71 112 120 104 174 173 159 187 182 168 170 168 154 195 190 168 192 186 170 179 176 163 199 186 179 181 176 163 196 185 164 183 182 158 208 205 183 179 182 169 195 194 164 181 181 168 206 192 178 184 183 180 191 199 172 195 195 169 162 160 144 144 138 111 171 173 141 174 166 147 178 181 144 167 168 141 172 164 138 177 164 148 173 158 133 161 160 133 168 160 131 163 154 119 150 145 93 149 138 71 115 136 100 122 134 113 137 145 117 138 145 119 108 117 97 85 106 77 79 97 68 85 92 66 86 101 72 90 93 71 90 105 73 79 86 70 90 90 72 79 81 72 94 88 72 141 134 122 177 169 157 173 166 154 183 178 164 183 171 173 180 171 171 188 177 165 197 188 177 182 182 158 193 181 177 198 180 166 186 184 159 204 196 175 194 181 175 197 187 181 202 195 186 180 172 157 196 188 179 164 169 139 186 183 162 191 187 157 175 163 148 169 154 145 186 183 158 182 168 139 176 167 144 158 159 132 186 165 153 173 171 131 163 159 136 183 176 148 171 160 138 151 145 113 145 161 133 134 144 120 130 145 114 118 132 104 87 97 80 81 91 69 86 89 69 75 97 65 83 87 67 82 99 68 84 98 76 78 94 65 84 89 72 90 85 81 91 87 84 158 156 137 172 164 158 174 164 159 189 182 168 168 165 150 176 181 149 188 183 165 179 171 169 177 165 161 185 182 163 191 183 175 212 194 183 195 176 168 205 198 183 189 182 174 195 182 165 199 191 173 196 194 169 178 172 158 167 168 145 180 173 155 186 181 162 190 183 156 184 177 158 176 168 143 175 169 149 171 168 134 175 169 143 176 171 136 174 165 141 169 161 127 182 172 140 160 151 127 137 157 125 124 136 115 120 138 109 94 116 88 80 90 73 85 95 74 83 94 67 79 83 69 76 102 67 86 90 73 91 85 72 91 97 72 91 93 74 95 103 84 157 148 132 177 170 154 169 165 155 175 174 160 166 159 156 179 176 165 191 186 173 174 163 154 171 170 154 175 172 158 183 177 159 203 198 171 189 184 170 188 188 169 203 190 167 186 184 171 191 177 163 188 184 169 184 185 167 183 191 154 184 170 146 185 177 154 176 168 148 181 180 154 197 192 164 171 163 144 171 173 140 173 162 141 175 170 143 169 160 138 171 162 137 176 173 142 159 153 131 157 151 137 132 147 127 125 139 111 105 114 91 99 113 86 82 91 76 79 92 68 90 110 73 73 85 74 80 86 65 84 95 77 89 90 77 83 91 68 101 92 86 131 142 122 182 173 155 178 165 155 186 182 167 183 184 170 189 185 182 172 170 150 169 163 151 164 154 140 162 167 139 152 140 139 156 148 136 168 154 147 179 176 155 185 172 171 211 193 184 172 168 151 191 186 166 178 175 147 179 172 150 189 177 156 197 183 172 194 176 159 174 164 149 176 164 153 187 171 155 167 155 149 183 173 155 171 164 140 182 165 145 166 147 129 161 152 129 160 155 135 148 151 127 170 166 133 135 153 115 134 144 125 117 125 110 103 109 92 95 108 82 81 99 75 84 107 74 87 97 75 86 100 75 83 86 73 91 96 75 114 112 98 131 134 111 170 172 160 172 163 149 173 169 157 192 187 175 186 181 160 176 174 156 169 159 154 151 149 138 126 118 115 125 113 100 116 108 96 125 119 108 147 134 130 149 152 135 179 169 161 208 207 191 190 183 162 185 177 170 189 187 168 200 192 176 188 181 163 197 183 160 184 170 157 185 169 155 170 166 149 177 173 149 178 171 149 174 168 150 177 174 155 192 180 149 171 161 139 173 159 141 162 151 132 168 171 139 167 168 142 139 152 127 133 150 115 124 132 113 112 129 104 97 111 87 92 107 84 89 102 78 93 104 82 89 97 79 98 108 83 117 122 111 135 138 122 180 177 165 154 155 140 178 175 161 169 168 148 182 170 156 185 181 168 172 173 157 146 145 123 135 127 110 110 102 90 93 91 74 95 94 74 94 86 84 110 113 94 132 128 114 164 162 140 170 160 149 186 184 166 192 185 168 193 185 168 193 187 169 174 170 151 184 168 147 179 172 152 181 172 155 182 169 147 171 166 151 177 166 152 172 171 148 179 171 149 173 166 145 194 180 159 183 174 159 172 163 149 167 163 138 156 150 135 